<?xml version="1.0" encoding="UTF-8" standalone="no"?>
<!-- Created with Inkscape (http://www.inkscape.org/) -->

<svg
   width="34.545452mm"
   height="34.61953mm"
   viewBox="0 0 34.545452 34.61953"
   version="1.1"
   id="svg1"
   xml:space="preserve"
   xmlns="http://www.w3.org/2000/svg"
   xmlns:svg="http://www.w3.org/2000/svg"><defs
     id="defs1" /><g
     id="layer1"
     transform="translate(-87.369104,-219.36077)"><path
       d="m 90.807058,219.41996 c -0.42909,0.0615 -0.84694,0.17825 -1.23967,0.36414 -2.29922,1.08823 -2.19762,3.49291 -2.19762,5.64109 v 19.04597 4.28253 c 0,1.20759 -0.0268,2.40305 0.70093,3.43729 1.6911,2.40337 5.19666,1.69047 7.75143,1.69047 h 15.326942 4.90237 c 0.82,0 1.72748,0.10816 2.5357,-0.0346 0.42717,-0.0755 0.86248,-0.19943 1.23968,-0.41696 2.25253,-1.29906 2.08492,-3.59444 2.08492,-5.85948 v -18.98963 -3.88808 c 0,-1.37573 0.0119,-2.69604 -0.88293,-3.83175 -1.13935,-1.446 -2.73733,-1.46507 -4.41388,-1.46507 h -3.38095 -14.988842 -4.90237 c -0.82668,0 -1.71711,-0.0932 -2.53571,0.0241 m 12.678542,5.40234 c 0.72658,-0.10091 1.29218,0.76809 1.74682,1.22272 0.46463,0.46464 1.35637,1.07029 1.5923,1.69048 0.12593,0.33107 -0.0666,0.74809 -0.14831,1.07063 -0.22283,0.87976 -0.34685,2.08324 -0.79132,2.87293 -0.21419,0.38055 -0.66481,0.41311 -1.04711,0.51653 -0.92736,0.25086 -1.91835,0.66828 -2.87381,0.77059 -0.78001,0.0835 -1.23238,-0.68544 -1.7446,-1.16377 -0.507492,-0.47391 -1.371522,-1.04479 -1.635822,-1.70025 -0.14242,-0.35322 0.0491,-0.78342 0.14462,-1.12698 0.24539,-0.88282 0.33554,-2.07325 0.78136,-2.87133 0.19459,-0.34834 0.694982,-0.40229 1.045722,-0.5017 0.94787,-0.26867 1.95426,-0.6443 2.93015,-0.77985 m -5.803952,5.74754 c 0.86476,-0.12461 1.36462,0.67152 1.91586,1.22277 0.450712,0.4507 1.306132,1.03241 1.535952,1.63412 0.12749,0.33379 -0.0225,0.74437 -0.10635,1.07063 -0.2273,0.88395 -0.34643,2.1462 -0.81476,2.92907 -0.20823,0.34809 -0.706282,0.39846 -1.065632,0.50031 -0.95583,0.27092 -1.997,0.68018 -2.9865,0.77963 -0.64444,0.0648 -1.22849,-0.81738 -1.63412,-1.22251 -0.47814,-0.47755 -1.32047,-0.99925 -1.57725,-1.63412 -0.14346,-0.35469 0.0321,-0.77817 0.11931,-1.12698 0.2224,-0.88961 0.33437,-2.13538 0.80527,-2.92485 0.20832,-0.34924 0.68822,-0.3863 1.04711,-0.47718 0.9088,-0.23013 1.83416,-0.61731 2.76111,-0.75089 m 15.721922,4.05764 c 0.72792,-0.0948 1.29266,0.76839 1.74682,1.22255 0.4664,0.4664 1.34834,1.06639 1.58373,1.69047 0.12707,0.33691 -0.069,0.74382 -0.15409,1.07063 -0.2302,0.88417 -0.33653,2.07236 -0.77836,2.87154 -0.20697,0.37435 -0.67241,0.40959 -1.04572,0.50349 -0.94152,0.23683 -1.90942,0.66901 -2.8738,0.78441 -0.78424,0.0938 -1.3042,-0.73268 -1.80317,-1.22925 -0.48345,-0.48111 -1.31596,-0.98616 -1.57725,-1.63416 -0.14018,-0.34763 0.0514,-0.73137 0.13165,-1.07063 0.21,-0.88749 0.33576,-2.1379 0.79293,-2.92772 0.20066,-0.34666 0.64173,-0.38155 0.99076,-0.49036 0.95099,-0.29644 1.99785,-0.66218 2.9865,-0.79097 m -13.29837,3.66695 c 0.61783,-0.0249 1.18479,0.82531 1.57777,1.21829 0.46463,0.46463 1.35637,1.07028 1.59229,1.69047 0.12503,0.32867 -0.054,0.74931 -0.13435,1.07063 -0.22196,0.88786 -0.34557,2.13314 -0.80667,2.92423 -0.19495,0.33449 -0.70345,0.39111 -1.04572,0.4778 -0.94723,0.23992 -2.119032,0.83007 -3.099192,0.8041 -0.60404,-0.016 -1.18543,-0.88486 -1.57778,-1.27594 -0.47165,-0.47013 -1.31621,-1.00315 -1.55816,-1.63416 -0.12995,-0.33893 0.0451,-0.73747 0.12839,-1.07063 0.16959,-0.67836 0.35635,-1.35251 0.53471,-2.02857 0.0794,-0.30085 0.12707,-0.69723 0.31483,-0.95202 0.22396,-0.3039 0.69119,-0.35502 1.03103,-0.45471 0.93989,-0.2757 2.06182,-0.72987 3.042842,-0.76949 m 7.77617,2.02857 c 0.61781,-0.025 1.18482,0.82533 1.57778,1.21828 0.47461,0.47461 1.40075,1.10311 1.62355,1.74682 0.11683,0.33753 -0.10099,0.79977 -0.19087,1.12698 -0.23711,0.86321 -0.31135,2.03963 -0.76432,2.81498 -0.19023,0.32561 -0.67162,0.39009 -1.00646,0.48553 -0.9619,0.27418 -2.09832,0.7511 -3.0992,0.79158 -0.61781,0.025 -1.18482,-0.82533 -1.57777,-1.21829 -0.45504,-0.45504 -1.34196,-1.03186 -1.58577,-1.63412 -0.14394,-0.35554 0.0149,-0.78179 0.11278,-1.12698 0.25045,-0.88362 0.32595,-2.14377 0.80185,-2.92767 0.20584,-0.33906 0.71117,-0.39877 1.06559,-0.48853 0.96403,-0.24418 2.04871,-0.74837 3.04284,-0.78858 z"
       style="fill:#010101;stroke:none"
       id="path1-2" /></g></svg>
